<svg width="402" height="97" viewBox="0 0 402 97" fill="none" xmlns="http://www.w3.org/2000/svg">
<path d="M58.6953 38.8418V67.0156C57.5885 68.3503 55.8796 69.7988 53.5684 71.3613C51.2572 72.8913 48.2786 74.2096 44.6328 75.3164C40.987 76.4232 36.5762 76.9766 31.4004 76.9766C26.8105 76.9766 22.6276 76.2279 18.8516 74.7305C15.0755 73.2005 11.8203 70.9707 9.08594 68.041C6.38411 65.1113 4.30078 61.5306 2.83594 57.2988C1.37109 53.0345 0.638672 48.168 0.638672 42.6992V38.2559C0.638672 32.7871 1.33854 27.9206 2.73828 23.6562C4.17057 19.3919 6.20508 15.7949 8.8418 12.8652C11.4785 9.93555 14.6198 7.70573 18.2656 6.17578C21.9115 4.64583 25.9642 3.88086 30.4238 3.88086C36.6087 3.88086 41.6868 4.88997 45.6582 6.9082C49.6296 8.89388 52.6569 11.6608 54.7402 15.209C56.8561 18.7246 58.1582 22.7611 58.6465 27.3184H44.4375C44.0794 24.9095 43.3958 22.8099 42.3867 21.0195C41.3776 19.2292 39.929 17.8294 38.041 16.8203C36.1855 15.8112 33.7767 15.3066 30.8145 15.3066C28.373 15.3066 26.1921 15.8112 24.2715 16.8203C22.3835 17.7969 20.7884 19.2454 19.4863 21.166C18.1842 23.0866 17.1914 25.4629 16.5078 28.2949C15.8242 31.127 15.4824 34.4147 15.4824 38.1582V42.6992C15.4824 46.4102 15.8405 49.6979 16.5566 52.5625C17.2728 55.3945 18.3307 57.7871 19.7305 59.7402C21.1628 61.6608 22.9206 63.1094 25.0039 64.0859C27.0872 65.0625 29.5124 65.5508 32.2793 65.5508C34.5905 65.5508 36.5111 65.3555 38.041 64.9648C39.6035 64.5742 40.8568 64.1022 41.8008 63.5488C42.7773 62.9629 43.526 62.4095 44.0469 61.8887V49.291H30.668V38.8418H58.6953Z" fill="black"/>
<path d="M84.4766 1V76H70.3652V1H84.4766Z" fill="black"/>
<path d="M127.348 63.3535V23.168H141.41V76H128.178L127.348 63.3535ZM128.91 52.5137L133.061 52.416C133.061 55.9316 132.654 59.2031 131.84 62.2305C131.026 65.2253 129.805 67.8294 128.178 70.043C126.55 72.224 124.499 73.9329 122.025 75.1699C119.551 76.3743 116.638 76.9766 113.285 76.9766C110.714 76.9766 108.337 76.6185 106.156 75.9023C104.008 75.1536 102.152 73.998 100.59 72.4355C99.0599 70.8405 97.8555 68.806 96.9766 66.332C96.1302 63.8255 95.707 60.8145 95.707 57.2988V23.168H109.77V57.3965C109.77 58.959 109.949 60.2773 110.307 61.3516C110.697 62.4258 111.234 63.3047 111.918 63.9883C112.602 64.6719 113.399 65.1602 114.311 65.4531C115.255 65.7461 116.296 65.8926 117.436 65.8926C120.333 65.8926 122.611 65.3066 124.271 64.1348C125.964 62.9629 127.152 61.3678 127.836 59.3496C128.552 57.2988 128.91 55.0202 128.91 52.5137Z" fill="black"/>
<path d="M166.215 34.6914V76H152.152V23.168H165.385L166.215 34.6914ZM182.133 22.8262L181.889 35.8633C181.205 35.7656 180.375 35.6842 179.398 35.6191C178.454 35.5215 177.592 35.4727 176.811 35.4727C174.825 35.4727 173.1 35.7331 171.635 36.2539C170.202 36.7422 168.998 37.4746 168.021 38.4512C167.077 39.4277 166.361 40.6159 165.873 42.0156C165.417 43.4154 165.157 45.0104 165.092 46.8008L162.26 45.9219C162.26 42.5039 162.602 39.3626 163.285 36.498C163.969 33.6009 164.962 31.0781 166.264 28.9297C167.598 26.7812 169.226 25.1211 171.146 23.9492C173.067 22.7773 175.264 22.1914 177.738 22.1914C178.52 22.1914 179.317 22.2565 180.131 22.3867C180.945 22.4844 181.612 22.6309 182.133 22.8262Z" fill="black"/>
<path d="M221.244 23.168H233.988V74.2422C233.988 79.0599 232.914 83.1452 230.766 86.498C228.65 89.8835 225.688 92.4388 221.879 94.1641C218.07 95.9219 213.643 96.8008 208.598 96.8008C206.384 96.8008 204.04 96.5078 201.566 95.9219C199.125 95.3359 196.781 94.4245 194.535 93.1875C192.322 91.9505 190.466 90.388 188.969 88.5L195.17 80.1992C196.798 82.0872 198.686 83.5521 200.834 84.5938C202.982 85.668 205.359 86.2051 207.963 86.2051C210.502 86.2051 212.65 85.7331 214.408 84.7891C216.166 83.8776 217.517 82.5267 218.461 80.7363C219.405 78.9785 219.877 76.8464 219.877 74.3398V35.375L221.244 23.168ZM185.697 50.2188V49.1934C185.697 45.1569 186.186 41.4948 187.162 38.207C188.171 34.8867 189.587 32.0384 191.41 29.6621C193.266 27.2858 195.512 25.4466 198.148 24.1445C200.785 22.8424 203.764 22.1914 207.084 22.1914C210.6 22.1914 213.546 22.8424 215.922 24.1445C218.298 25.4466 220.251 27.3021 221.781 29.7109C223.311 32.0872 224.499 34.903 225.346 38.1582C226.225 41.3809 226.908 44.9128 227.396 48.7539V51C226.908 54.6784 226.176 58.0964 225.199 61.2539C224.223 64.4115 222.937 67.1784 221.342 69.5547C219.747 71.8984 217.761 73.7214 215.385 75.0234C213.041 76.3255 210.242 76.9766 206.986 76.9766C203.731 76.9766 200.785 76.3092 198.148 74.9746C195.544 73.64 193.314 71.7682 191.459 69.3594C189.604 66.9505 188.171 64.1185 187.162 60.8633C186.186 57.6081 185.697 54.0599 185.697 50.2188ZM199.76 49.1934V50.2188C199.76 52.3997 199.971 54.4342 200.395 56.3223C200.818 58.2103 201.469 59.8867 202.348 61.3516C203.259 62.7839 204.382 63.9069 205.717 64.7207C207.084 65.502 208.695 65.8926 210.551 65.8926C213.122 65.8926 215.222 65.3555 216.85 64.2812C218.477 63.1745 219.698 61.6608 220.512 59.7402C221.326 57.8197 221.798 55.6061 221.928 53.0996V46.7031C221.863 44.6523 221.586 42.8132 221.098 41.1855C220.609 39.5254 219.926 38.1094 219.047 36.9375C218.168 35.7656 217.029 34.8542 215.629 34.2031C214.229 33.5521 212.569 33.2266 210.648 33.2266C208.793 33.2266 207.182 33.6497 205.814 34.4961C204.48 35.3099 203.357 36.4329 202.445 37.8652C201.566 39.2975 200.899 40.9902 200.443 42.9434C199.988 44.8639 199.76 46.9473 199.76 49.1934Z" fill="black"/>
<path d="M269.242 76.9766C265.141 76.9766 261.462 76.3255 258.207 75.0234C254.952 73.6888 252.185 71.8496 249.906 69.5059C247.66 67.1621 245.935 64.444 244.73 61.3516C243.526 58.2266 242.924 54.9062 242.924 51.3906V49.4375C242.924 45.4336 243.493 41.7715 244.633 38.4512C245.772 35.1309 247.4 32.25 249.516 29.8086C251.664 27.3672 254.268 25.4954 257.328 24.1934C260.388 22.8587 263.839 22.1914 267.68 22.1914C271.423 22.1914 274.743 22.8099 277.641 24.0469C280.538 25.2839 282.963 27.0417 284.916 29.3203C286.902 31.599 288.399 34.3333 289.408 37.5234C290.417 40.681 290.922 44.1966 290.922 48.0703V53.9297H248.93V44.5547H277.104V43.4805C277.104 41.5273 276.745 39.7858 276.029 38.2559C275.346 36.6934 274.304 35.4564 272.904 34.5449C271.505 33.6335 269.714 33.1777 267.533 33.1777C265.678 33.1777 264.083 33.5846 262.748 34.3984C261.413 35.2122 260.323 36.3516 259.477 37.8164C258.663 39.2812 258.044 41.0065 257.621 42.9922C257.23 44.9453 257.035 47.0938 257.035 49.4375V51.3906C257.035 53.5065 257.328 55.4596 257.914 57.25C258.533 59.0404 259.395 60.5866 260.502 61.8887C261.641 63.1908 263.008 64.1999 264.604 64.916C266.231 65.6322 268.07 65.9902 270.121 65.9902C272.66 65.9902 275.02 65.502 277.201 64.5254C279.415 63.5163 281.319 62.0026 282.914 59.9844L289.75 67.4062C288.643 69.0013 287.13 70.5312 285.209 71.9961C283.321 73.4609 281.042 74.6654 278.373 75.6094C275.704 76.5208 272.66 76.9766 269.242 76.9766Z" fill="black"/>
<path d="M323.246 76.9766C319.145 76.9766 315.466 76.3255 312.211 75.0234C308.956 73.6888 306.189 71.8496 303.91 69.5059C301.664 67.1621 299.939 64.444 298.734 61.3516C297.53 58.2266 296.928 54.9062 296.928 51.3906V49.4375C296.928 45.4336 297.497 41.7715 298.637 38.4512C299.776 35.1309 301.404 32.25 303.52 29.8086C305.668 27.3672 308.272 25.4954 311.332 24.1934C314.392 22.8587 317.842 22.1914 321.684 22.1914C325.427 22.1914 328.747 22.8099 331.645 24.0469C334.542 25.2839 336.967 27.0417 338.92 29.3203C340.906 31.599 342.403 34.3333 343.412 37.5234C344.421 40.681 344.926 44.1966 344.926 48.0703V53.9297H302.934V44.5547H331.107V43.4805C331.107 41.5273 330.749 39.7858 330.033 38.2559C329.35 36.6934 328.308 35.4564 326.908 34.5449C325.508 33.6335 323.718 33.1777 321.537 33.1777C319.682 33.1777 318.087 33.5846 316.752 34.3984C315.417 35.2122 314.327 36.3516 313.48 37.8164C312.667 39.2812 312.048 41.0065 311.625 42.9922C311.234 44.9453 311.039 47.0938 311.039 49.4375V51.3906C311.039 53.5065 311.332 55.4596 311.918 57.25C312.536 59.0404 313.399 60.5866 314.506 61.8887C315.645 63.1908 317.012 64.1999 318.607 64.916C320.235 65.6322 322.074 65.9902 324.125 65.9902C326.664 65.9902 329.024 65.502 331.205 64.5254C333.419 63.5163 335.323 62.0026 336.918 59.9844L343.754 67.4062C342.647 69.0013 341.133 70.5312 339.213 71.9961C337.325 73.4609 335.046 74.6654 332.377 75.6094C329.708 76.5208 326.664 76.9766 323.246 76.9766Z" fill="black"/>
<path d="M366.996 0.951172V76H352.934V0.951172H366.996ZM400.297 23.168L377.348 49.3398L365.043 61.791L359.916 51.6348L369.682 39.2324L383.402 23.168H400.297ZM385.697 76L370.072 51.5859L379.789 43.0898L401.908 76H385.697Z" fill="black"/>
</svg>
