<svg width="277" height="279" viewBox="0 0 277 279" fill="none" xmlns="http://www.w3.org/2000/svg">
<g filter="url(#filter0_d_2_63)">
<g clip-path="url(#clip0_2_63)">
<path d="M266.902 50.1682C262.676 52.0565 258.332 53.6501 253.892 54.944C259.148 48.9557 263.155 41.9097 265.602 34.1993C266.15 32.4711 265.582 30.5793 264.172 29.449C262.763 28.3178 260.806 28.1823 259.256 29.108C249.828 34.7413 239.656 38.7897 228.991 41.157C218.247 30.5811 203.655 24.5622 188.57 24.5622C156.729 24.5622 130.823 50.6595 130.823 82.7372C130.823 85.2636 130.982 87.776 131.296 90.2535C91.7833 86.7585 55.0492 67.1931 29.824 36.0203C28.925 34.9092 27.5401 34.3104 26.1222 34.4249C24.7034 34.5368 23.4287 35.3428 22.712 36.5815C17.5957 45.4257 14.891 55.541 14.891 65.8329C14.891 79.8506 19.8588 93.1506 28.6343 103.543C25.966 102.612 23.3766 101.448 20.9053 100.066C19.5785 99.3224 17.9593 99.3338 16.6412 100.095C15.3223 100.857 14.4953 102.257 14.4606 103.788C14.4545 104.046 14.4545 104.304 14.4545 104.565C14.4545 125.489 25.6328 144.327 42.7229 154.594C41.2547 154.446 39.7874 154.232 38.3296 153.952C36.8266 153.662 35.2812 154.193 34.2677 155.348C33.2524 156.502 32.9166 158.11 33.3843 159.579C39.7102 179.475 55.9968 194.11 75.6859 198.572C59.3558 208.876 40.6812 214.274 21.0771 214.274C16.9866 214.274 12.8726 214.031 8.84631 213.552C6.84616 213.312 4.93366 214.502 4.25248 216.418C3.5713 218.335 4.29326 220.473 5.99491 221.571C31.1794 237.839 60.2999 246.438 90.2067 246.438C149 246.438 185.779 218.507 206.279 195.076C231.843 165.86 246.504 127.188 246.504 88.9781C246.504 87.3818 246.48 85.7698 246.431 84.163C256.517 76.5077 265.201 67.243 272.267 56.5944C273.34 54.9772 273.224 52.8398 271.98 51.351C270.739 49.8614 268.669 49.3797 266.902 50.1682Z" fill="#0E0C0C"/>
</g>
<rect x="4.5" y="0.5" width="268" height="270" stroke="black" shape-rendering="crispEdges"/>
</g>
<defs>
<filter id="filter0_d_2_63" x="0" y="0" width="277" height="279" filterUnits="userSpaceOnUse" color-interpolation-filters="sRGB">
<feFlood flood-opacity="0" result="BackgroundImageFix"/>
<feColorMatrix in="SourceAlpha" type="matrix" values="0 0 0 0 0 0 0 0 0 0 0 0 0 0 0 0 0 0 127 0" result="hardAlpha"/>
<feOffset dy="4"/>
<feGaussianBlur stdDeviation="2"/>
<feComposite in2="hardAlpha" operator="out"/>
<feColorMatrix type="matrix" values="0 0 0 0 0 0 0 0 0 0 0 0 0 0 0 0 0 0 0.25 0"/>
<feBlend mode="normal" in2="BackgroundImageFix" result="effect1_dropShadow_2_63"/>
<feBlend mode="normal" in="SourceGraphic" in2="effect1_dropShadow_2_63" result="shape"/>
</filter>
<clipPath id="clip0_2_63">
<rect x="4" width="269" height="271" fill="white"/>
</clipPath>
</defs>
</svg>
