<svg width="237" height="237" viewBox="0 0 237 237" fill="none" xmlns="http://www.w3.org/2000/svg">
<g clip-path="url(#clip0_2_45)">
<path d="M205.664 39.868C242.469 51.052 237.107 85.428 235.64 119.941C234.861 138.275 237.611 166.83 229.59 183.88C224.457 194.743 214.144 195.155 203.556 195.614C151.534 198.043 98.6401 200.198 46.6641 197.814C17.2381 196.439 -2.60795 187.593 1.01305 158.763C-1.32495 130.987 0.738054 101.607 3.62605 74.336C5.13905 60.127 8.20905 45.873 23.4271 41.198C34.1521 37.852 47.9031 41.29 59.0861 40.831C73.524 40.281 87.8241 38.264 102.308 38.081C135.584 37.623 168.86 38.31 202.136 38.494C203.693 38.493 204.793 39.089 205.664 39.868ZM155.063 111.966C142.138 104.862 129.121 97.895 115.92 91.34C107.486 87.123 99.007 82.952 90.3901 79.011C90.0231 78.828 88.6481 78.369 87.1361 77.819C90.8491 102.615 87.5941 129.933 86.5401 155.325C110.053 141.85 132.695 127.183 155.063 111.966Z" fill="#201D1D"/>
</g>
<rect x="0.5" y="0.5" width="235.777" height="235.777" stroke="black"/>
<defs>
<clipPath id="clip0_2_45">
<rect width="236.777" height="236.777" fill="white"/>
</clipPath>
</defs>
</svg>
